<svg xmlns="http://www.w3.org/2000/svg" viewBox="0 0 512 512">
  <defs>
    <linearGradient id="bg" x1="0%" y1="0%" x2="100%" y2="100%">
      <stop offset="0%" style="stop-color:#4A90A4"/>
      <stop offset="100%" style="stop-color:#3a7a8e"/>
    </linearGradient>
  </defs>

  <!-- 背景 -->
  <rect width="512" height="512" rx="100" fill="url(#bg)"/>

  <!-- 家のアイコン -->
  <path d="M256 100 L120 220 L120 400 L392 400 L392 220 Z" fill="white" opacity="0.95"/>
  <path d="M256 80 L80 240 L120 240 L256 120 L392 240 L432 240 Z" fill="white"/>

  <!-- ほうきアイコン -->
  <g transform="translate(200, 240) rotate(-30)">
    <rect x="0" y="0" width="12" height="120" rx="6" fill="#7CB342"/>
    <ellipse cx="6" cy="130" rx="25" ry="35" fill="#8D6E63"/>
    <path d="M-19 130 Q6 100 31 130 Q6 160 -19 130" fill="#6D4C41"/>
  </g>

  <!-- キラキラ -->
  <g fill="#FFD54F">
    <path d="M340 150 L350 170 L370 170 L355 185 L360 205 L340 190 L320 205 L325 185 L310 170 L330 170 Z"/>
    <circle cx="380" cy="280" r="8"/>
    <circle cx="150" cy="320" r="6"/>
  </g>
</svg>
